HIERARCHY
ROOT Hips
{
  OFFSET 56.5711 83.5676 52.1387
  CHANNELS 6 Xposition Yposition Zposition Zrotation Xrotation Yrotation
  JOINT Spine
  {
    OFFSET 0 8.5038 -4.6017
    CHANNELS 6 Xposition Yposition Zposition Zrotation Xrotation Yrotation
    JOINT Spine1
    {
      OFFSET 0 7.7603 0.405401
      CHANNELS 6 Xposition Yposition Zposition Zrotation Xrotation Yrotation
      JOINT Spine2
      {
        OFFSET 0 9.6025 -2.1374
        CHANNELS 6 Xposition Yposition Zposition Zrotation Xrotation Yrotation
        JOINT Neck
        {
          OFFSET 0 21.6389 -0.45
          CHANNELS 6 Xposition Yposition Zposition Zrotation Xrotation Yrotation
          JOINT Head
          {
            OFFSET -9.91394e-005 12.2197 3.3238
            CHANNELS 6 Xposition Yposition Zposition Zrotation Xrotation Yrotation
            End Site
            {
              OFFSET 0.0001 17.074 0.5097
            }
          }
        }
        JOINT LeftShoulder
        {
          OFFSET 2.1846 20.8826 7.1545
          CHANNELS 6 Xposition Yposition Zposition Zrotation Xrotation Yrotation
          JOINT LeftArm
          {
            OFFSET 12.7628 2.9953 -4.8467
            CHANNELS 6 Xposition Yposition Zposition Zrotation Xrotation Yrotation
            JOINT LeftForeArm
            {
              OFFSET 27.1108 -0.096033 -0.234889
              CHANNELS 6 Xposition Yposition Zposition Zrotation Xrotation Yrotation
              JOINT LeftHand
              {
                OFFSET 22.6162 0.0655939 -0.135497
                CHANNELS 6 Xposition Yposition Zposition Zrotation Xrotation Yrotation
                JOINT LeftHandIndex1
                {
                  OFFSET 8.7654 0.7666 2.4346
                  CHANNELS 6 Xposition Yposition Zposition Zrotation Xrotation Yrotation
                  JOINT LeftHandIndex2
                  {
                    OFFSET 3.2787 -0.7995 0.5777
                    CHANNELS 6 Xposition Yposition Zposition Zrotation Xrotation Yrotation
                    JOINT LeftHandIndex3
                    {
                      OFFSET 2.2383 -0.5459 0.3945
                      CHANNELS 6 Xposition Yposition Zposition Zrotation Xrotation Yrotation
                      End Site
                      {
                        OFFSET 1.5927 -0.4755 0.2584
                      }
                    }
                  }
                }
                JOINT LeftHandMiddle1
                {
                  OFFSET 8.8962 0.8853 0.212
                  CHANNELS 6 Xposition Yposition Zposition Zrotation Xrotation Yrotation
                  JOINT LeftHandMiddle2
                  {
                    OFFSET 4.0539 0.0113 -0.0239
                    CHANNELS 6 Xposition Yposition Zposition Zrotation Xrotation Yrotation
                    JOINT LeftHandMiddle3
                    {
                      OFFSET 2.2471 0.0069 -0.0137
                      CHANNELS 6 Xposition Yposition Zposition Zrotation Xrotation Yrotation
                      End Site
                      {
                        OFFSET 2.0183 -0.1425 0.0027
                      }
                    }
                  }
                }
                JOINT LeftHandRing1
                {
                  OFFSET 8.431 0.5908 -1.9946
                  CHANNELS 6 Xposition Yposition Zposition Zrotation Xrotation Yrotation
                  JOINT LeftHandRing2
                  {
                    OFFSET 3.6785 -0.1862 -0.2303
                    CHANNELS 6 Xposition Yposition Zposition Zrotation Xrotation Yrotation
                    JOINT LeftHandRing3
                    {
                      OFFSET 2.0962 -0.1055 -0.1317
                      CHANNELS 6 Xposition Yposition Zposition Zrotation Xrotation Yrotation
                      End Site
                      {
                        OFFSET 1.8534 -0.2279 -0.0876
                      }
                    }
                  }
                }
                JOINT LeftHandPinky1
                {
                  OFFSET 7.8236 -0.5945 -3.4447
                  CHANNELS 6 Xposition Yposition Zposition Zrotation Xrotation Yrotation
                  JOINT LeftHandPinky2
                  {
                    OFFSET 2.2626 -0.4719 -0.6246
                    CHANNELS 6 Xposition Yposition Zposition Zrotation Xrotation Yrotation
                    JOINT LeftHandPinky3
                    {
                      OFFSET 1.6592 -0.3455 -0.4583
                      CHANNELS 6 Xposition Yposition Zposition Zrotation Xrotation Yrotation
                      End Site
                      {
                        OFFSET 1.4727 -0.4046 -0.3379
                      }
                    }
                  }
                }
                JOINT LeftHandThumb1
                {
                  OFFSET 1.8133 -1.3724 1.3746
                  CHANNELS 6 Xposition Yposition Zposition Zrotation Xrotation Yrotation
                  JOINT LeftHandThumb2
                  {
                    OFFSET 3.376 -1.1087 2.5453
                    CHANNELS 6 Xposition Yposition Zposition Zrotation Xrotation Yrotation
                    JOINT LeftHandThumb3
                    {
                      OFFSET 2.223 -0.7955 1.6016
                      CHANNELS 6 Xposition Yposition Zposition Zrotation Xrotation Yrotation
                      End Site
                      {
                        OFFSET 1.6347 -0.5627 1.1194
                      }
                    }
                  }
                }
              }
            }
          }
        }
        JOINT RightShoulder
        {
          OFFSET -2.1846 20.8826 7.1545
          CHANNELS 6 Xposition Yposition Zposition Zrotation Xrotation Yrotation
          JOINT RightArm
          {
            OFFSET -12.7651 2.99578 -4.8475
            CHANNELS 6 Xposition Yposition Zposition Zrotation Xrotation Yrotation
            JOINT RightForeArm
            {
              OFFSET -27.1108 -0.0961839 -0.234921
              CHANNELS 6 Xposition Yposition Zposition Zrotation Xrotation Yrotation
              JOINT RightHand
              {
                OFFSET -22.6162 0.0655911 -0.135506
                CHANNELS 6 Xposition Yposition Zposition Zrotation Xrotation Yrotation
                JOINT RightHandIndex1
                {
                  OFFSET -8.7654 0.7667 2.4346
                  CHANNELS 6 Xposition Yposition Zposition Zrotation Xrotation Yrotation
                  JOINT RightHandIndex2
                  {
                    OFFSET -3.2787 -0.7995 0.5777
                    CHANNELS 6 Xposition Yposition Zposition Zrotation Xrotation Yrotation
                    JOINT RightHandIndex3
                    {
                      OFFSET -2.2383 -0.5461 0.3945
                      CHANNELS 6 Xposition Yposition Zposition Zrotation Xrotation Yrotation
                      End Site
                      {
                        OFFSET -1.5928 -0.4755 0.2584
                      }
                    }
                  }
                }
                JOINT RightHandMiddle1
                {
                  OFFSET -8.8962 0.8853 0.212
                  CHANNELS 6 Xposition Yposition Zposition Zrotation Xrotation Yrotation
                  JOINT RightHandMiddle2
                  {
                    OFFSET -4.0539 0.0113 -0.024
                    CHANNELS 6 Xposition Yposition Zposition Zrotation Xrotation Yrotation
                    JOINT RightHandMiddle3
                    {
                      OFFSET -2.2471 0.0069 -0.0137
                      CHANNELS 6 Xposition Yposition Zposition Zrotation Xrotation Yrotation
                      End Site
                      {
                        OFFSET -2.0183 -0.1425 0.0027
                      }
                    }
                  }
                }
                JOINT RightHandRing1
                {
                  OFFSET -8.431 0.5908 -1.9946
                  CHANNELS 6 Xposition Yposition Zposition Zrotation Xrotation Yrotation
                  JOINT RightHandRing2
                  {
                    OFFSET -3.6785 -0.1862 -0.2303
                    CHANNELS 6 Xposition Yposition Zposition Zrotation Xrotation Yrotation
                    JOINT RightHandRing3
                    {
                      OFFSET -2.0962 -0.1055 -0.1317
                      CHANNELS 6 Xposition Yposition Zposition Zrotation Xrotation Yrotation
                      End Site
                      {
                        OFFSET -1.8534 -0.2279 -0.0876
                      }
                    }
                  }
                }
                JOINT RightHandPinky1
                {
                  OFFSET -7.8236 -0.5945 -3.4447
                  CHANNELS 6 Xposition Yposition Zposition Zrotation Xrotation Yrotation
                  JOINT RightHandPinky2
                  {
                    OFFSET -2.2626 -0.4718 -0.624601
                    CHANNELS 6 Xposition Yposition Zposition Zrotation Xrotation Yrotation
                    JOINT RightHandPinky3
                    {
                      OFFSET -1.6592 -0.3454 -0.4583
                      CHANNELS 6 Xposition Yposition Zposition Zrotation Xrotation Yrotation
                      End Site
                      {
                        OFFSET -1.4727 -0.4046 -0.3379
                      }
                    }
                  }
                }
                JOINT RightHandThumb1
                {
                  OFFSET -1.8133 -1.3723 1.3745
                  CHANNELS 6 Xposition Yposition Zposition Zrotation Xrotation Yrotation
                  JOINT RightHandThumb2
                  {
                    OFFSET -3.3759 -1.1088 2.5454
                    CHANNELS 6 Xposition Yposition Zposition Zrotation Xrotation Yrotation
                    JOINT RightHandThumb3
                    {
                      OFFSET -2.223 -0.7954 1.6016
                      CHANNELS 6 Xposition Yposition Zposition Zrotation Xrotation Yrotation
                      End Site
                      {
                        OFFSET -1.6347 -0.5627 1.1194
                      }
                    }
                  }
                }
              }
            }
          }
        }
      }
    }
  }
  JOINT RightUpLeg
  {
    OFFSET -9.0969 3.8439 -0.749801
    CHANNELS 6 Xposition Yposition Zposition Zrotation Xrotation Yrotation
    JOINT RightLeg
    {
      OFFSET -0.727822 -39.5675 -2.91055e-005
      CHANNELS 6 Xposition Yposition Zposition Zrotation Xrotation Yrotation
      JOINT RightFoot
      {
        OFFSET 0 -38.8528 1.71912e-005
        CHANNELS 6 Xposition Yposition Zposition Zrotation Xrotation Yrotation
        JOINT RightToeBase
        {
          OFFSET 0 -4.2703 8.9297
          CHANNELS 6 Xposition Yposition Zposition Zrotation Xrotation Yrotation
          End Site
          {
            OFFSET 0 0 5.9906
          }
        }
      }
    }
  }
  JOINT LeftUpLeg
  {
    OFFSET 9.0968 3.8442 -0.749799
    CHANNELS 6 Xposition Yposition Zposition Zrotation Xrotation Yrotation
    JOINT LeftLeg
    {
      OFFSET 0.727938 -39.5676 -4.48256e-005
      CHANNELS 6 Xposition Yposition Zposition Zrotation Xrotation Yrotation
      JOINT LeftFoot
      {
        OFFSET 0 -38.8527 0
        CHANNELS 6 Xposition Yposition Zposition Zrotation Xrotation Yrotation
        JOINT LeftToeBase
        {
          OFFSET 0 -4.2703 8.9297
          CHANNELS 6 Xposition Yposition Zposition Zrotation Xrotation Yrotation
          End Site
          {
            OFFSET 0 0 5.9906
          }
        }
      }
    }
  }
}
MOTION
Frames:	4
Frame Time:	0.0333333
46.4168 83.6763 62.4106 2.17873 -6.04537 95.7002 -2.15082e-007 8.5038 -4.6017 -0.312176 2.25921 0.182848 -8.47664e-008 7.7603 0.405401 -0.632309 4.51738 0.378419 1.89184e-007 9.6025 -2.1374 -0.632311 4.51738 0.378433 -1.77675e-006 21.6389 -0.45 -3.16284e-005 2.42838e-005 1.31572e-005 -9.91394e-005 12.2198 3.3238 16.3953 -12.8277 7.60122 2.1846 20.8826 7.1545 13.4423 0.27411 1.1465 12.7628 2.9953 -4.8467 -32.6628 -6.56776 -84.505 27.108 -0.0961213 -0.234927 -8.82407 4.71743 -105.205 22.6162 0.0655939 -0.135497 27.4366 15.3891 -0.800938 8.7654 0.7666 2.4346 1.27222e-014 1.59028e-015 1.59028e-015 3.2787 -0.7995 0.5777 -3.18055e-015 1.59028e-015 -0 2.2383 -0.5459 0.3945 -4.41391e-032 1.59028e-015 1.59028e-015 8.8962 0.8853 0.212 1.27222e-014 1.59028e-015 1.59028e-015 4.0539 0.0113 -0.0239 -0.0166562 -0.000101548 -3.19348e-007 2.2471 0.0069 -0.0137 -1.59028e-014 7.95139e-016 -0 8.431 0.5908 -1.9946 1.27222e-014 1.59028e-015 1.59028e-015 3.6785 -0.1862 -0.2303 -0.0162996 -0.00102151 5.08996e-005 2.0962 -0.1055 -0.1317 -3.18055e-015 1.59028e-015 7.95139e-016 7.8236 -0.5945 -3.4447 1.27222e-014 1.59028e-015 1.59028e-015 2.2626 -0.4719 -0.6246 -0.0175662 -0.00465067 0.00096774 1.6592 -0.3455 -0.4583 3.18055e-015 -2.38542e-015 7.95139e-016 1.8133 -1.3724 1.3746 1.27222e-014 1.59028e-015 1.59028e-015 3.376 -1.1087 2.5453 -3.18055e-015 1.59028e-015 -0 2.223 -0.7955 1.6016 -4.41391e-032 1.59028e-015 1.59028e-015 -2.1846 20.8826 7.1545 -6.41598 -1.07261 9.45207 -12.7651 2.99578 -4.8475 22.17 16.6348 84.2962 -27.1106 -0.0961876 -0.234865 9.49683 6.21929 122.163 -22.6162 0.0655911 -0.135506 -30.6211 17.2516 14.2644 -8.7654 0.7667 2.4346 -1.59028e-015 -6.36111e-015 -0 -3.2787 -0.7995 0.5777 1.59028e-015 -3.18055e-015 -6.36111e-015 -2.2383 -0.5461 0.3945 -9.54166e-015 -3.18055e-015 3.18055e-015 -8.8962 0.8853 0.212 -1.59028e-015 -6.36111e-015 -0 -4.0539 0.0113 -0.024 0.0162675 -9.91777e-005 3.42096e-007 -2.2471 0.0069 -0.0137 1.59028e-015 -6.36111e-015 -3.18055e-015 -8.431 0.5908 -1.9946 -1.59028e-015 -6.36111e-015 -0 -3.6785 -0.1862 -0.2303 0.0165297 -0.00103591 -5.22155e-005 -2.0962 -0.1055 -0.1317 6.36111e-015 6.36111e-015 -6.36111e-015 -7.8236 -0.5945 -3.4447 -1.59028e-015 -6.36111e-015 -0 -2.2626 -0.4718 -0.624601 0.0170741 -0.00451995 -0.000941799 -1.6592 -0.3454 -0.4583 6.36111e-015 -3.18055e-015 3.18055e-015 -1.8133 -1.3723 1.3745 -1.59028e-015 -6.36111e-015 -0 -3.3759 -1.1088 2.5454 1.59028e-015 -3.18055e-015 -6.36111e-015 -2.223 -0.7954 1.6016 -9.54166e-015 -3.18055e-015 3.18055e-015 -9.0969 3.8439 -0.749801 1.06221 4.19746 -6.40777 -0.727897 -39.5676 1.26365e-005 0.000675804 1.54875 0.013307 6.40951e-006 -38.8528 1.71912e-005 7.42991 -11.7375 -1.24873 5.10465e-006 -4.2703 8.9297 -1.36347e-006 1.13806e-006 -3.64401e-006 9.0968 3.8442 -0.749799 21.5784 -1.88301 -0.0555194 0.727979 -39.5673 2.82161e-005 -0.00198538 1.58083 -0.256987 -2.42753e-006 -38.8528 2.69921e-006 -16.4533 -0.237595 -1.06358 -3.44753e-006 -4.2703 8.9297 2.2421e-006 -8.50465e-007 1.90962e-005 
46.438 83.7104 61.2579 1.80416 -5.01668 95.0972 -2.15082e-007 8.5038 -4.6017 -0.0369968 2.09503 0.110681 -8.47663e-008 7.7603 0.405401 -0.0781454 4.18999 0.222941 1.89184e-007 9.6025 -2.1374 -0.0781466 4.18999 0.222973 -1.77675e-006 21.6392 -0.45 -3.16284e-005 2.42838e-005 1.31572e-005 -9.91394e-005 12.2198 3.3238 16.0041 -12.7484 8.80182 2.1846 20.8826 7.1545 14.0269 0.730265 2.92061 12.7628 2.9953 -4.8467 -30.3317 -8.1748 -90.1866 27.108 -0.0961168 -0.234956 -8.87503 5.10107 -108.725 22.6162 0.0655939 -0.135497 26.0258 17.4671 -2.26621 8.7654 0.7666 2.4346 9.54166e-015 1.13059e-015 -8.07563e-016 3.2787 -0.7995 0.5777 6.36111e-015 1.3418e-015 -6.08778e-016 2.2383 -0.5459 0.3945 6.36111e-015 5.59082e-016 -1.41634e-015 8.8962 0.8853 0.212 9.54166e-015 1.13059e-015 -8.07563e-016 4.0539 0.0113 -0.0239 -0.0166562 -0.000101548 -3.19348e-007 2.2471 0.0069 -0.0137 -3.18055e-015 -1.98785e-016 1.04362e-015 8.431 0.5908 -1.9946 9.54166e-015 1.13059e-015 -8.07563e-016 3.6785 -0.1862 -0.2303 -0.0162996 -0.00102151 5.08996e-005 2.0962 -0.1055 -0.1317 3.18055e-015 -1.15544e-015 1.2424e-015 7.8236 -0.5945 -3.4447 9.54166e-015 1.13059e-015 -8.07563e-016 2.2626 -0.4719 -0.6246 -0.0175662 -0.00465067 0.00096774 1.6592 -0.3455 -0.4583 3.18055e-015 -9.19379e-016 1.46604e-015 1.8133 -1.3724 1.3746 9.54166e-015 1.13059e-015 -8.07563e-016 3.376 -1.1087 2.5453 6.36111e-015 1.3418e-015 -6.08778e-016 2.223 -0.7955 1.6016 6.36111e-015 5.59082e-016 -1.41634e-015 -2.1846 20.8826 7.1545 -6.55129 -1.21138 10.4307 -12.7651 2.99578 -4.8475 22.8081 16.305 83.8058 -27.1106 -0.0961973 -0.234874 9.49431 6.25206 122.453 -22.6162 0.0655911 -0.135506 -34.3981 18.924 15.865 -8.7654 0.7667 2.4346 -6.36111e-015 0 -0 -3.2787 -0.7995 0.5777 0 0 -0 -2.2383 -0.5461 0.3945 -6.36111e-015 -3.18055e-015 -3.18055e-015 -8.8962 0.8853 0.212 -6.36111e-015 0 -0 -4.0539 0.0113 -0.024 0.0162675 -9.91777e-005 3.42096e-007 -2.2471 0.0069 -0.0137 -0 0 3.18055e-015 -8.431 0.5908 -1.9946 -6.36111e-015 0 -0 -3.6785 -0.1862 -0.2303 0.0165297 -0.00103591 -5.22155e-005 -2.0962 -0.1055 -0.1317 -1.76556e-031 -3.18055e-015 -3.18055e-015 -7.8236 -0.5945 -3.4447 -6.36111e-015 0 -0 -2.2626 -0.4718 -0.624601 0.0170741 -0.00451995 -0.000941799 -1.6592 -0.3454 -0.4583 6.36111e-015 3.18055e-015 3.18055e-015 -1.8133 -1.3723 1.3745 -6.36111e-015 0 -0 -3.3759 -1.1088 2.5454 0 0 -0 -2.223 -0.7954 1.6016 -6.36111e-015 -3.18055e-015 -3.18055e-015 -9.0969 3.8439 -0.749801 -0.806135 4.06018 -6.07409 -0.727957 -39.5676 -0.000569798 0.000525219 1.35347 0.0657272 6.40951e-006 -38.8528 1.71912e-005 8.14477 -11.7305 -0.974611 5.10465e-006 -4.2703 8.9297 -1.36347e-006 1.13806e-006 -3.64401e-006 9.0968 3.8442 -0.749799 20.3709 -1.9505 -0.79464 0.727978 -39.5673 2.44588e-005 -0.00306606 1.92188 -0.360925 -2.42753e-006 -38.8528 2.69921e-006 -17.9513 -0.265287 -1.63932 -3.44753e-006 -4.2703 8.9297 2.2421e-006 -8.50465e-007 1.90962e-005 
46.5836 83.6981 59.8799 1.60542 -3.92791 94.319 -2.15082e-007 8.5038 -4.6017 0.228386 1.96911 0.0729986 -8.47664e-008 7.7603 0.405401 0.454671 3.9385 0.138288 1.89184e-007 9.6025 -2.1374 0.454668 3.9385 0.138289 -1.77675e-006 21.6389 -0.45 -3.16284e-005 2.42838e-005 1.31572e-005 -9.91394e-005 12.2198 3.3238 15.409 -12.6498 9.91668 2.1846 20.8826 7.1545 14.694 1.15916 4.41119 12.7628 2.9953 -4.8467 -28.3577 -10.0609 -95.659 27.108 -0.0961118 -0.23483 -8.90134 5.46681 -112.062 22.6162 0.0655939 -0.135497 25.3024 18.8096 -2.83772 8.7654 0.7666 2.4346 -1.27222e-014 2.38542e-015 1.59028e-015 3.2787 -0.7995 0.5777 -9.54166e-015 2.38542e-015 3.97569e-015 2.2383 -0.5459 0.3945 -9.54166e-015 1.59028e-015 7.95139e-016 8.8962 0.8853 0.212 -1.27222e-014 2.38542e-015 1.59028e-015 4.0539 0.0113 -0.0239 -0.0166562 -0.000101548 -3.19348e-007 2.2471 0.0069 -0.0137 6.36111e-015 1.59028e-015 7.95139e-016 8.431 0.5908 -1.9946 -1.27222e-014 2.38542e-015 1.59028e-015 3.6785 -0.1862 -0.2303 -0.0162996 -0.00102151 5.08996e-005 2.0962 -0.1055 -0.1317 -3.18055e-015 7.95139e-016 -0 7.8236 -0.5945 -3.4447 -1.27222e-014 2.38542e-015 1.59028e-015 2.2626 -0.4719 -0.6246 -0.0175662 -0.00465067 0.00096774 1.6592 -0.3455 -0.4583 1.10348e-032 7.95139e-016 -7.95139e-016 1.8133 -1.3724 1.3746 -1.27222e-014 2.38542e-015 1.59028e-015 3.376 -1.1087 2.5453 -9.54166e-015 2.38542e-015 3.97569e-015 2.223 -0.7955 1.6016 -9.54166e-015 1.59028e-015 7.95139e-016 -2.1846 20.8826 7.1545 -6.63632 -1.29026 10.954 -12.7651 2.99578 -4.8475 22.8735 16.2059 83.8466 -27.1106 -0.096205 -0.234884 9.48835 6.32147 123.07 -22.6162 0.0655911 -0.135506 -37.7557 19.3244 16.7114 -8.7654 0.7667 2.4346 3.18055e-015 3.18055e-015 -0 -3.2787 -0.7995 0.5777 -1.76556e-031 -3.18055e-015 -3.18055e-015 -2.2383 -0.5461 0.3945 -7.95139e-015 3.18055e-015 -3.18055e-015 -8.8962 0.8853 0.212 3.18055e-015 3.18055e-015 -0 -4.0539 0.0113 -0.024 0.0162675 -9.91777e-005 3.42096e-007 -2.2471 0.0069 -0.0137 -5.29669e-031 -9.54166e-015 -3.18055e-015 -8.431 0.5908 -1.9946 3.18055e-015 3.18055e-015 -0 -3.6785 -0.1862 -0.2303 0.0165297 -0.00103591 -5.22155e-005 -2.0962 -0.1055 -0.1317 -3.18055e-015 6.36111e-015 -3.18055e-015 -7.8236 -0.5945 -3.4447 3.18055e-015 3.18055e-015 -0 -2.2626 -0.4718 -0.624601 0.0170741 -0.00451995 -0.000941799 -1.6592 -0.3454 -0.4583 -1.59028e-015 -3.18055e-015 -0 -1.8133 -1.3723 1.3745 3.18055e-015 3.18055e-015 -0 -3.3759 -1.1088 2.5454 -1.76556e-031 -3.18055e-015 -3.18055e-015 -2.223 -0.7954 1.6016 -7.95139e-015 3.18055e-015 -3.18055e-015 -9.0969 3.8439 -0.749801 -2.9239 3.90886 -5.56253 -0.727982 -39.5676 -0.000787529 0.00183711 1.57631 0.136318 6.40951e-006 -38.8528 1.71912e-005 9.00952 -11.8483 -0.61596 5.10465e-006 -4.2703 8.9297 -1.36347e-006 1.13806e-006 -3.64401e-006 9.0968 3.8442 -0.749799 18.8432 -1.59133 -1.08267 0.727978 -39.5673 2.19479e-005 -0.00489153 2.37875 -0.506576 -2.42753e-006 -38.8528 2.69921e-006 -19.5962 -1.59055 -1.86201 -3.44753e-006 -4.2703 8.9297 2.2421e-006 -8.50465e-007 1.90962e-005 
46.8291 83.6429 58.2945 1.52019 -2.73357 93.3898 -2.15082e-007 8.5038 -4.6017 0.591982 1.83272 -0.18859 -8.47663e-008 7.7603 0.405401 1.19092 3.66338 -0.396628 1.89184e-007 9.6025 -2.1374 1.19092 3.66338 -0.396638 -1.77675e-006 21.6389 -0.45 -3.16284e-005 2.42838e-005 1.31572e-005 -9.91394e-005 12.2198 3.3238 14.2714 -12.0772 11.9491 2.1846 20.8826 7.1545 15.4236 1.8196 6.56525 12.7628 2.9953 -4.8467 -27.2493 -11.4976 -100.252 27.108 -0.0961063 -0.234879 -8.90579 5.86199 -115.661 22.6162 0.0655939 -0.135497 24.8685 19.6271 -2.00211 8.7654 0.7666 2.4346 -3.18055e-015 3.18055e-015 3.18055e-015 3.2787 -0.7995 0.5777 -6.36111e-015 1.59028e-015 -3.18055e-015 2.2383 -0.5459 0.3945 -3.18055e-015 -1.59028e-015 1.59028e-015 8.8962 0.8853 0.212 -3.18055e-015 3.18055e-015 3.18055e-015 4.0539 0.0113 -0.0239 -0.0166562 -0.000101548 -3.19348e-007 2.2471 0.0069 -0.0137 -0 -3.18055e-015 -0 8.431 0.5908 -1.9946 -3.18055e-015 3.18055e-015 3.18055e-015 3.6785 -0.1862 -0.2303 -0.0162996 -0.00102151 5.08996e-005 2.0962 -0.1055 -0.1317 3.18055e-015 0 -0 7.8236 -0.5945 -3.4447 -3.18055e-015 3.18055e-015 3.18055e-015 2.2626 -0.4719 -0.6246 -0.0175662 -0.00465067 0.00096774 1.6592 -0.3455 -0.4583 3.18055e-015 -1.59028e-015 -3.18055e-015 1.8133 -1.3724 1.3746 -3.18055e-015 3.18055e-015 3.18055e-015 3.376 -1.1087 2.5453 -6.36111e-015 1.59028e-015 -3.18055e-015 2.223 -0.7955 1.6016 -3.18055e-015 -1.59028e-015 1.59028e-015 -2.1846 20.8826 7.1545 -8.17282 -1.8533 12.691 -12.7651 2.99578 -4.8475 23.4282 16.7132 83.4988 -27.1106 -0.0962103 -0.234894 9.48247 6.38234 123.611 -22.6162 0.0655911 -0.135506 -40.4305 22.16 19.0063 -8.7654 0.7667 2.4346 -6.36111e-015 3.18055e-015 3.18055e-015 -3.2787 -0.7995 0.5777 1.76556e-031 3.18055e-015 -3.18055e-015 -2.2383 -0.5461 0.3945 -4.77083e-015 1.27222e-014 -3.18055e-015 -8.8962 0.8853 0.212 -6.36111e-015 3.18055e-015 3.18055e-015 -4.0539 0.0113 -0.024 0.0162675 -9.91777e-005 3.42096e-007 -2.2471 0.0069 -0.0137 -0 -3.18055e-015 -0 -8.431 0.5908 -1.9946 -6.36111e-015 3.18055e-015 3.18055e-015 -3.6785 -0.1862 -0.2303 0.0165297 -0.00103591 -5.22155e-005 -2.0962 -0.1055 -0.1317 -3.18055e-015 0 -1.59028e-015 -7.8236 -0.5945 -3.4447 -6.36111e-015 3.18055e-015 3.18055e-015 -2.2626 -0.4718 -0.624601 0.0170741 -0.00451995 -0.000941799 -1.6592 -0.3454 -0.4583 1.59028e-015 3.18055e-015 -0 -1.8133 -1.3723 1.3745 -6.36111e-015 3.18055e-015 3.18055e-015 -3.3759 -1.1088 2.5454 1.76556e-031 3.18055e-015 -3.18055e-015 -2.223 -0.7954 1.6016 -4.77083e-015 1.27222e-014 -3.18055e-015 -9.0969 3.8439 -0.749801 -5.32445 3.68364 -4.92783 -0.728003 -39.5676 3.43797e-006 0.00404545 2.14614 0.224379 6.40951e-006 -38.8528 1.71912e-005 10.0405 -12.061 -0.150469 5.10465e-006 -4.2703 8.9297 -1.36347e-006 1.13806e-006 -3.64401e-006 9.0968 3.8442 -0.749799 16.9069 -0.92768 -0.809125 0.72798 -39.5673 2.13518e-005 -0.0069933 2.92247 -0.648123 -2.42753e-006 -38.8528 2.69921e-006 -20.6678 -4.08173 -2.03384 -3.44753e-006 -4.2703 8.9297 2.2421e-006 -8.50465e-007 1.90962e-005 
